<svg width="62" height="61" viewBox="0 0 62 61" fill="none" xmlns="http://www.w3.org/2000/svg">
<path fill-rule="evenodd" clip-rule="evenodd" d="M44.7033 22.8837L30.9957 2.58768L17.8934 22.5042L30.9957 0L44.7033 22.8837Z" fill="black"/>
<path fill-rule="evenodd" clip-rule="evenodd" d="M38.1824 53.6341L58.6531 51.7019L47.9724 28.9131L62 53.6341H38.1824Z" fill="black"/>
<path fill-rule="evenodd" clip-rule="evenodd" d="M23.6532 53.6341L3.34691 51.7019L14.019 28.9131L0 53.6341H23.6532Z" fill="black"/>
<path d="M30.9178 23.3244C33.669 23.3244 35.8993 21.1 35.8993 18.356C35.8993 15.6121 33.669 13.3877 30.9178 13.3877C28.1667 13.3877 25.9364 15.6121 25.9364 18.356C25.9364 21.1 28.1667 23.3244 30.9178 23.3244Z" fill="#E30613"/>
<path d="M37.4041 47.9151C37.4127 37.573 44.3314 28.8611 53.7668 26.2217C43.4406 28.6282 35.8214 37.0899 35.8474 47.1388C35.8647 52.4263 37.9921 57.2566 41.512 61.0001C41.4947 60.9484 41.4688 60.8966 41.4515 60.8449C38.8916 57.1876 37.3954 52.7282 37.4041 47.9151Z" fill="#E30613"/>
<path d="M31.4108 27.2487C28.479 27.2487 19.2944 26.3344 12.5141 17.2344C18.1096 26.2309 28.5827 30.7248 38.1219 27.4816C43.1379 25.7737 47.047 22.22 49.4772 17.7002C49.4339 17.7347 49.5204 17.6657 49.4772 17.7002C44.8589 25.2217 37.0408 27.2487 31.4108 27.2487Z" fill="#E30613"/>
<path d="M24.4402 47.9151C24.4315 37.573 17.5129 28.8611 8.07751 26.2217C18.4036 28.6282 26.0228 37.0899 25.9969 47.1388C25.9796 52.4263 23.8521 57.2566 20.3322 61.0001C20.3495 60.9484 20.3755 60.8966 20.3928 60.8449C22.9527 57.1876 24.4488 52.7282 24.4402 47.9151Z" fill="#E30613"/>
</svg>
