<svg width="24" height="23" viewBox="0 0 24 23" fill="none" xmlns="http://www.w3.org/2000/svg">
<path d="M17.9986 0.00478553L14.8864 0C11.3899 0 9.1303 2.22168 9.1303 5.66033V8.27012H6.00109C5.73069 8.27012 5.51172 8.48021 5.51172 8.73934V12.5206C5.51172 12.7798 5.73094 12.9896 6.00109 12.9896H9.1303V22.531C9.1303 22.7902 9.34926 23 9.61966 23H13.7024C13.9728 23 14.1918 22.7899 14.1918 22.531V12.9896H17.8505C18.1209 12.9896 18.3399 12.7798 18.3399 12.5206L18.3414 8.73934C18.3414 8.61492 18.2897 8.49576 18.1981 8.40771C18.1065 8.31965 17.9816 8.27012 17.8518 8.27012H14.1918V6.05777C14.1918 4.99442 14.4562 4.45462 15.9016 4.45462L17.9981 4.4539C18.2682 4.4539 18.4872 4.24381 18.4872 3.98491V0.473768C18.4872 0.21511 18.2685 0.00526409 17.9986 0.00478553Z" fill="black"/>
</svg>
