<svg width="62" height="61" viewBox="0 0 62 61" fill="none" xmlns="http://www.w3.org/2000/svg">
<path fill-rule="evenodd" clip-rule="evenodd" d="M44.7033 22.8837L30.9957 2.58768L17.8934 22.5042L30.9957 0L44.7033 22.8837Z" fill="#8E8E8E"/>
<path fill-rule="evenodd" clip-rule="evenodd" d="M38.1824 53.6338L58.6531 51.7017L47.9724 28.9128L62 53.6338H38.1824Z" fill="#8E8E8E"/>
<path fill-rule="evenodd" clip-rule="evenodd" d="M23.6532 53.6338L3.34691 51.7017L14.019 28.9128L0 53.6338H23.6532Z" fill="#8E8E8E"/>
<path d="M30.9178 23.324C33.669 23.324 35.8993 21.0996 35.8993 18.3557C35.8993 15.6117 33.669 13.3873 30.9178 13.3873C28.1667 13.3873 25.9364 15.6117 25.9364 18.3557C25.9364 21.0996 28.1667 23.324 30.9178 23.324Z" fill="white"/>
<path d="M37.4041 47.915C37.4127 37.5729 44.3314 28.861 53.7668 26.2216C43.4406 28.6281 35.8214 37.0898 35.8474 47.1386C35.8647 52.4261 37.9921 57.2565 41.512 61C41.4947 60.9482 41.4688 60.8965 41.4515 60.8447C38.8916 57.1875 37.3954 52.728 37.4041 47.915Z" fill="white"/>
<path d="M31.4108 27.2483C28.479 27.2483 19.2944 26.334 12.5141 17.234C18.1096 26.2305 28.5827 30.7244 38.1219 27.4812C43.1379 25.7734 47.047 22.2196 49.4772 17.6998C49.4339 17.7343 49.5204 17.6653 49.4772 17.6998C44.8589 25.2213 37.0408 27.2483 31.4108 27.2483Z" fill="white"/>
<path d="M24.4402 47.915C24.4315 37.5729 17.5129 28.861 8.07751 26.2216C18.4036 28.6281 26.0228 37.0898 25.9969 47.1386C25.9796 52.4261 23.8521 57.2565 20.3322 61C20.3495 60.9482 20.3755 60.8965 20.3928 60.8447C22.9527 57.1875 24.4488 52.728 24.4402 47.915Z" fill="white"/>
</svg>
