<svg width="24" height="24" viewBox="0 0 24 24" fill="none" xmlns="http://www.w3.org/2000/svg">
<path d="M17.1562 0H6.84375C5.87447 0 5.08594 0.788531 5.08594 1.75781V22.2422C5.08594 23.2115 5.87447 24 6.84375 24H17.1562C18.1255 24 18.9141 23.2115 18.9141 22.2422V1.75781C18.9141 0.788531 18.1255 0 17.1562 0ZM18.2109 19.0781H8.25C8.05584 19.0781 7.89844 19.2355 7.89844 19.4297C7.89844 19.6238 8.05584 19.7812 8.25 19.7812H18.2109V22.2422C18.2109 22.8238 17.7378 23.2969 17.1562 23.2969H6.84375C6.26217 23.2969 5.78906 22.8238 5.78906 22.2422V19.7812H6.84375C7.03791 19.7812 7.19531 19.6238 7.19531 19.4297C7.19531 19.2355 7.03791 19.0781 6.84375 19.0781H5.78906V3.51562H18.2109V19.0781ZM18.2109 2.8125H5.78906V1.75781C5.78906 1.17623 6.26217 0.703125 6.84375 0.703125H17.1562C17.7378 0.703125 18.2109 1.17623 18.2109 1.75781V2.8125Z" fill="white"/>
<path d="M13.4062 1.40625H12C11.8058 1.40625 11.6484 1.56366 11.6484 1.75781C11.6484 1.95197 11.8058 2.10938 12 2.10938H13.4062C13.6004 2.10938 13.7578 1.95197 13.7578 1.75781C13.7578 1.56366 13.6004 1.40625 13.4062 1.40625Z" fill="white"/>
<path d="M12 20.4844C11.4184 20.4844 10.9453 20.9575 10.9453 21.5391C10.9453 22.1206 11.4184 22.5938 12 22.5938C12.5816 22.5938 13.0547 22.1206 13.0547 21.5391C13.0547 20.9575 12.5816 20.4844 12 20.4844ZM12 21.8906C11.8061 21.8906 11.6484 21.7329 11.6484 21.5391C11.6484 21.3452 11.8061 21.1875 12 21.1875C12.1939 21.1875 12.3516 21.3452 12.3516 21.5391C12.3516 21.7329 12.1939 21.8906 12 21.8906Z" fill="white"/>
<path d="M10.5938 2.10938C10.7879 2.10938 10.9453 1.95198 10.9453 1.75781C10.9453 1.56365 10.7879 1.40625 10.5938 1.40625C10.3996 1.40625 10.2422 1.56365 10.2422 1.75781C10.2422 1.95198 10.3996 2.10938 10.5938 2.10938Z" fill="white"/>
</svg>
