<svg width="42" height="33" viewBox="0 0 42 33" fill="none" xmlns="http://www.w3.org/2000/svg">
<path d="M9.672 -5.72205e-06C12.36 -5.72205e-06 14.568 0.863995 16.296 2.592C18.024 4.256 18.888 6.464 18.888 9.216C18.888 10.496 18.728 11.776 18.408 13.056C18.088 14.336 17.416 16.256 16.392 18.816L10.824 32.64H1.32L5.448 17.472C3.848 16.768 2.6 15.712 1.704 14.304C0.808 12.896 0.36 11.2 0.36 9.216C0.36 6.464 1.224 4.256 2.952 2.592C4.744 0.863995 6.984 -5.72205e-06 9.672 -5.72205e-06ZM32.328 -5.72205e-06C35.016 -5.72205e-06 37.224 0.863995 38.952 2.592C40.68 4.256 41.544 6.464 41.544 9.216C41.544 10.496 41.384 11.776 41.064 13.056C40.744 14.336 40.072 16.256 39.048 18.816L33.48 32.64H23.976L28.104 17.472C26.504 16.768 25.256 15.712 24.36 14.304C23.464 12.896 23.016 11.2 23.016 9.216C23.016 6.464 23.88 4.256 25.608 2.592C27.4 0.863995 29.64 -5.72205e-06 32.328 -5.72205e-06Z" fill="#E5E5E5"/>
</svg>
