<svg width="41" height="41" viewBox="0 0 41 41" fill="none" xmlns="http://www.w3.org/2000/svg">
<g clip-path="url(#clip0_764_256)">
<path d="M5.76562 10.25C3.99942 10.25 2.5625 11.6869 2.5625 13.4531C2.5625 15.2193 3.99942 16.6562 5.76562 16.6562C7.53183 16.6562 8.96875 15.2193 8.96875 13.4531C8.96875 11.6869 7.53183 10.25 5.76562 10.25ZM5.76562 15.375C4.70603 15.375 3.84375 14.5127 3.84375 13.4531C3.84375 12.3935 4.70603 11.5312 5.76562 11.5312C6.82522 11.5312 7.6875 12.3935 7.6875 13.4531C7.6875 14.5127 6.82522 15.375 5.76562 15.375Z" fill="#BBBABA"/>
<path d="M10.8708 27.1074L18.9657 23.4731L37.6214 28.8031C37.7456 28.839 37.8776 28.8358 38 28.7948L39.9218 28.1542C40.1723 28.0709 40.3459 27.8422 40.3588 27.5789C40.378 27.3124 40.2223 27.0703 39.9814 26.9626L25.5872 20.5L39.9814 14.0374C40.2223 13.9298 40.3773 13.6831 40.3588 13.4211C40.3453 13.1578 40.1717 12.9291 39.9218 12.8458L38 12.2052C37.8776 12.1648 37.7456 12.1616 37.6214 12.1969L18.9657 17.5269L10.8714 13.8926C10.8836 13.744 10.8906 13.5973 10.8906 13.4531C10.8906 10.6273 8.59144 8.32812 5.76564 8.32812C2.93984 8.32812 0.64064 10.6273 0.64064 13.4531C0.64064 16.2789 2.93984 18.5781 5.76564 18.5781C7.24164 18.5781 8.63949 17.9375 9.60747 16.8407L12.8151 18.5679C13.603 18.992 14.1854 19.6819 14.4916 20.4904C14.1822 21.3206 13.6005 22.01 12.8151 22.4328L9.60747 24.1599C8.63949 23.0625 7.24164 22.4219 5.76564 22.4219C2.93984 22.4219 0.64064 24.7211 0.640639 27.5469C0.640639 30.3727 2.93984 32.6719 5.76564 32.6719C8.7375 32.6719 11.1411 30.1132 10.8708 27.1074ZM37.7822 13.4826L37.9577 13.5409L24.0235 19.7979L20.7787 18.3411L37.7822 13.4826ZM15.9913 21.2912C15.8305 19.6691 14.8766 18.2226 13.4224 17.4397L9.74136 15.4576C9.45564 15.3032 9.09945 15.3878 8.91303 15.6543C8.19297 16.6832 7.01614 17.2969 5.76564 17.2969C3.64581 17.2969 1.92189 15.573 1.92189 13.4531C1.92189 11.3333 3.64581 9.60937 5.76564 9.60937C7.88547 9.60937 9.60939 11.3333 9.60939 13.4531C9.60939 13.6831 9.58697 13.915 9.54084 14.1629C9.48639 14.4499 9.63822 14.7433 9.90792 14.8644L37.9577 27.4585L37.7822 27.5168L15.9913 21.2912ZM1.92189 27.5469C1.92189 25.427 3.64581 23.7031 5.76564 23.7031C7.01614 23.7031 8.19297 24.3168 8.91367 25.3457C9.10009 25.6122 9.45628 25.6961 9.742 25.5424L13.4224 23.5603C14.0291 23.2335 14.548 22.7896 14.9618 22.2617C15.0304 22.3207 15.1072 22.3713 15.1988 22.3975L17.0541 22.9273L9.90856 26.1356C9.6395 26.256 9.48383 26.5462 9.54148 26.8371C9.58697 27.085 9.60939 27.3169 9.60939 27.5469C9.60939 29.6667 7.88547 31.3906 5.76564 31.3906C3.64581 31.3906 1.92189 29.6667 1.92189 27.5469Z" fill="#BBBABA"/>
<path d="M18.5781 19.8594L18.5781 21.1406L17.2969 21.1406L17.2969 19.8594L18.5781 19.8594Z" fill="#BBBABA"/>
<path d="M8.96875 27.5469C8.96875 25.7807 7.53183 24.3437 5.76562 24.3437C3.99942 24.3437 2.5625 25.7807 2.5625 27.5469C2.5625 29.3131 3.99942 30.75 5.76562 30.75C7.53183 30.75 8.96875 29.3131 8.96875 27.5469ZM3.84375 27.5469C3.84375 26.4873 4.70603 25.625 5.76562 25.625C6.82522 25.625 7.6875 26.4873 7.6875 27.5469C7.6875 28.6065 6.82522 29.4687 5.76562 29.4687C4.70603 29.4687 3.84375 28.6065 3.84375 27.5469Z" fill="#BBBABA"/>
</g>
<defs>
<clipPath id="clip0_764_256">
<rect width="41" height="41" fill="white" transform="translate(41) rotate(90)"/>
</clipPath>
</defs>
</svg>
